<svg width="933" height="282" viewBox="0 0 933 282" fill="none" xmlns="http://www.w3.org/2000/svg">
<g clip-path="url(#clip0_1_108)">
<path d="M75.7266 23L48.0938 98.7266H103.57L75.7266 23ZM85.0078 7.39062L132.258 136.906C134.508 142.812 137.25 146.891 140.484 149.141C143.578 151.531 148.078 152.727 153.984 152.727V158.211H98.9297V152.727C108.492 152.727 114.68 151.742 117.492 149.773C120.586 147.664 120.867 143.656 118.336 137.75L105.891 105.055H45.9844L36.2812 132.688C33.1875 140.562 33.0469 145.906 35.8594 148.719C38.5312 151.391 44.7891 152.727 54.6328 152.727V158.211H7.38281V152.727C13.4297 152.727 17.7891 151.391 20.4609 148.719C23.2734 146.047 26.5781 139.93 30.375 130.367L72.9844 12.4531L85.0078 7.39062ZM224.016 70.25C224.016 66.4531 222.398 63.8516 219.164 62.4453C216.07 61.0391 210.516 60.3359 202.5 60.3359V54.8516H304.805V60.3359C295.945 60.3359 290.039 61.25 287.086 63.0781C284.555 64.7656 283.289 68.1406 283.289 73.2031V137.75C283.289 142.531 284.555 146.047 287.086 148.297C290.461 151.25 296.367 152.727 304.805 152.727V158.211H248.273V152.727C256.008 152.727 261.562 151.391 264.938 148.719C268.172 146.328 269.789 142.742 269.789 137.961V60.3359H229.5V118.977C229.5 133.461 225.984 144.43 218.953 151.883C212.766 158.492 204.328 161.797 193.641 161.797C184.922 161.797 178.734 160.391 175.078 157.578C171.703 155.188 170.016 151.531 170.016 146.609C170.016 142.953 171.07 140.07 173.18 137.961C175.289 135.711 178.102 134.586 181.617 134.586C184.008 134.586 186.398 135.641 188.789 137.75C190.195 139.016 192.023 141.336 194.273 144.711C196.102 147.383 197.508 149.211 198.492 150.195C200.039 151.883 201.586 152.727 203.133 152.727C208.336 152.727 212.977 150.125 217.055 144.922C221.695 139.156 224.016 131.422 224.016 121.719V70.25ZM356.906 97.25V152.727H376.102C388.055 152.727 397.758 149.914 405.211 144.289C412.523 138.945 416.18 132.266 416.18 124.25C416.18 116.656 412.523 110.328 405.211 105.266C397.617 99.9219 387.844 97.25 375.891 97.25H356.906ZM321.891 152.727C330.047 152.727 335.742 151.391 338.977 148.719C341.93 146.328 343.406 142.32 343.406 136.695V73.2031C343.406 68.1406 341.93 64.6953 338.977 62.8672C336.023 61.1797 330.328 60.3359 321.891 60.3359V54.8516H383.906V60.3359C373.781 60.3359 366.82 61.1094 363.023 62.6562C358.945 64.4844 356.906 67.8594 356.906 72.7812V91.7656H375.891C391.922 91.7656 404.367 93.875 413.227 98.0938C424.195 103.438 429.68 112.156 429.68 124.25C429.68 135.359 424.266 143.938 413.438 149.984C403.875 155.469 391.43 158.211 376.102 158.211H321.891V152.727ZM446.555 152.727C453.727 152.727 459.281 151.602 463.219 149.352C467.156 147.242 469.125 144.148 469.125 140.07V70.0391C469.125 66.5234 467.156 63.9922 463.219 62.4453C459.562 61.0391 454.008 60.3359 446.555 60.3359V54.8516H572.695V60.3359C564.68 60.3359 558.914 61.0391 555.398 62.4453C551.883 63.8516 550.125 66.3828 550.125 70.0391V140.07C550.125 144.148 551.883 147.242 555.398 149.352C559.195 151.602 564.961 152.727 572.695 152.727V158.211H512.789V152.727C520.805 152.727 526.781 151.602 530.719 149.352C534.656 147.242 536.625 144.148 536.625 140.07V60.3359H482.625V140.07C482.625 144.148 484.383 147.242 487.898 149.352C491.414 151.602 496.617 152.727 503.508 152.727V158.211H446.555V152.727ZM685.547 151.25C682.875 154.625 680.484 157.086 678.375 158.633C675.422 160.742 672.047 161.797 668.25 161.797C663.75 161.797 660.586 160.25 658.758 157.156C657.352 154.766 656.648 151.391 656.648 147.031C651.586 151.672 646.594 155.188 641.672 157.578C635.766 160.391 629.438 161.797 622.688 161.797C613.828 161.797 606.938 159.336 602.016 154.414C597.375 149.773 595.055 143.797 595.055 136.484C595.055 126.781 600.398 118.414 611.086 111.383C621.773 104.211 636.961 98.9375 656.648 95.5625V80.1641C656.648 73.4141 655.031 68.2109 651.797 64.5547C648.422 60.6172 643.641 58.6484 637.453 58.6484C631.969 58.6484 627.609 59.8438 624.375 62.2344C621 64.625 618.398 68.6328 616.57 74.2578C615.445 77.0703 614.32 79.1094 613.195 80.375C611.508 82.3438 609.398 83.3281 606.867 83.3281C604.055 83.3281 601.945 82.4844 600.539 80.7969C599.133 79.25 598.43 77 598.43 74.0469C598.43 68.5625 602.297 63.7109 610.031 59.4922C617.906 55.4141 627.398 53.375 638.508 53.375C647.93 53.375 655.383 55.8359 660.867 60.7578C666.633 65.8203 669.516 72.9922 669.516 82.2734V142.18C669.516 145.695 669.797 148.438 670.359 150.406C670.922 152.656 672.047 153.781 673.734 153.781C675.281 153.781 676.688 153.5 677.953 152.938C679.781 152.094 681.68 150.758 683.648 148.93L685.547 151.25ZM656.648 101.469C643.852 103.156 633.094 106.883 624.375 112.648C614.391 119.117 609.398 126.922 609.398 136.062C609.398 140.984 611.016 145.062 614.25 148.297C617.484 151.531 621.633 153.148 626.695 153.148C632.883 153.148 638.297 152.094 642.938 149.984C647.297 148.156 651.867 144.992 656.648 140.492V101.469ZM724.992 138.172C727.664 141.969 730.477 144.781 733.43 146.609C737.367 149.422 742.148 150.828 747.773 150.828C758.039 150.828 766.055 146.188 771.82 136.906C777.164 128.609 779.836 118.273 779.836 105.898C779.836 93.3828 777.164 82.9766 771.82 74.6797C765.914 65.3984 757.898 60.7578 747.773 60.7578C743.273 60.7578 739.195 61.6719 735.539 63.5C731.602 65.6094 728.086 68.7734 724.992 72.9922V138.172ZM697.57 188.586V183.102C703.055 183.102 706.852 182.188 708.961 180.359C711.07 178.531 712.125 175.367 712.125 170.867V75.1016C712.125 71.5859 711.141 69.125 709.172 67.7188C707.062 66.3125 703.547 65.6094 698.625 65.6094L697.57 62.4453L724.992 53.375V64.9766C728.367 61.3203 732.094 58.5078 736.172 56.5391C740.953 54.4297 746.367 53.375 752.414 53.375C765.633 53.375 776.039 58.7188 783.633 69.4062C790.664 79.25 794.18 91.4141 794.18 105.898C794.18 120.242 790.664 132.266 783.633 141.969C776.039 152.797 765.633 158.211 752.414 158.211C746.508 158.211 741.094 157.016 736.172 154.625C731.953 152.797 728.227 150.195 724.992 146.82V170.867C724.992 175.227 726.188 178.391 728.578 180.359C730.969 182.188 734.555 183.102 739.336 183.102V188.586H697.57ZM810 152.727C817.031 152.727 822.375 151.391 826.031 148.719C829.688 146.188 831.516 142.531 831.516 137.75V75.5234C831.516 69.6172 829.688 65.5391 826.031 63.2891C822.797 61.3203 817.453 60.3359 810 60.3359V54.8516H868.852V60.3359C859.992 60.3359 853.875 61.3203 850.5 63.2891C846.844 65.5391 845.016 69.6172 845.016 75.5234V102.945H859.148C864.492 100.414 868.711 96.3359 871.805 90.7109C873.633 87.6172 875.602 82.4141 877.711 75.1016C879.82 67.5078 881.93 62.3047 884.039 59.4922C887.414 55.1328 892.547 52.9531 899.438 52.9531C907.172 52.9531 913.078 54.0078 917.156 56.1172C921.234 58.3672 923.273 61.6016 923.273 65.8203C923.273 69.1953 922.219 72.0078 920.109 74.2578C917.859 76.6484 914.977 77.8438 911.461 77.8438C908.367 77.8438 905.906 76.8594 904.078 74.8906C902.953 73.7656 901.688 71.7969 900.281 68.9844C899.156 66.7344 898.242 65.2578 897.539 64.5547C896.414 63.2891 895.078 62.6562 893.531 62.6562C891.562 62.6562 890.016 63.7109 888.891 65.8203C888.328 67.2266 887.625 70.0391 886.781 74.2578C885.375 81.0078 883.828 86.2109 882.141 89.8672C879.328 96.0547 875.18 101.117 869.695 105.055C874.617 106.602 878.977 109.977 882.773 115.18C885.023 118.414 887.766 123.477 891 130.367C893.953 136.836 896.273 141.195 897.961 143.445C900.773 147.242 904.008 149.141 907.664 149.141C910.758 148.719 913.5 147.523 915.891 145.555C918.281 143.445 920.039 140.844 921.164 137.75L925.383 139.016C924.258 145.906 922.43 151.18 919.898 154.836C917.086 158.914 913.289 160.953 908.508 160.953C899.93 160.953 893.461 158.703 889.102 154.203C886.289 151.391 883.266 146.047 880.031 138.172C877.219 131.281 874.758 126.148 872.648 122.773C868.992 117.008 864.422 112.227 858.938 108.43H845.016V137.75C845.016 142.531 846.844 146.188 850.5 148.719C854.297 151.391 860.414 152.727 868.852 152.727V158.211H810V152.727Z" fill="#17375E"/>
<line x1="9" y1="167" x2="9" y2="272" stroke="#17375E" stroke-width="4"/>
<line x1="51" y1="167" x2="51" y2="272" stroke="#17375E" stroke-width="4"/>
<line x1="76" y1="167" x2="76" y2="272" stroke="#17375E" stroke-width="4"/>
<line x1="110" y1="167" x2="110" y2="272" stroke="#17375E" stroke-width="4"/>
<line x1="118" y1="167" x2="118" y2="272" stroke="#17375E" stroke-width="4"/>
<line x1="126" y1="167" x2="126" y2="272" stroke="#17375E" stroke-width="4"/>
<line x1="134" y1="167" x2="134" y2="272" stroke="#17375E" stroke-width="4"/>
<line x1="185" y1="167" x2="185" y2="272" stroke="#17375E" stroke-width="4"/>
<line x1="319" y1="167" x2="319" y2="272" stroke="#17375E" stroke-width="4"/>
<line x1="445" y1="167" x2="445" y2="272" stroke="#17375E" stroke-width="4"/>
<line x1="587" y1="167" x2="587" y2="272" stroke="#17375E" stroke-width="4"/>
<line x1="788" y1="167" x2="788" y2="272" stroke="#17375E" stroke-width="4"/>
<line x1="193" y1="167" x2="193" y2="272" stroke="#17375E" stroke-width="4"/>
<line x1="327" y1="167" x2="327" y2="272" stroke="#17375E" stroke-width="4"/>
<line x1="453" y1="167" x2="453" y2="272" stroke="#17375E" stroke-width="4"/>
<line x1="595" y1="167" x2="595" y2="272" stroke="#17375E" stroke-width="4"/>
<line x1="796" y1="167" x2="796" y2="272" stroke="#17375E" stroke-width="4"/>
<line x1="855" y1="167" x2="855" y2="272" stroke="#17375E" stroke-width="4"/>
<line x1="201" y1="167" x2="201" y2="272" stroke="#17375E" stroke-width="4"/>
<line x1="252" y1="167" x2="252" y2="272" stroke="#17375E" stroke-width="4"/>
<line x1="277" y1="167" x2="277" y2="272" stroke="#17375E" stroke-width="4"/>
<line x1="293" y1="167" x2="293" y2="272" stroke="#17375E" stroke-width="4"/>
<line x1="335" y1="167" x2="335" y2="272" stroke="#17375E" stroke-width="4"/>
<line x1="461" y1="167" x2="461" y2="272" stroke="#17375E" stroke-width="4"/>
<line x1="495" y1="167" x2="495" y2="272" stroke="#17375E" stroke-width="4"/>
<line x1="520" y1="167" x2="520" y2="272" stroke="#17375E" stroke-width="4"/>
<line x1="545" y1="167" x2="545" y2="272" stroke="#17375E" stroke-width="4"/>
<line x1="562" y1="167" x2="562" y2="272" stroke="#17375E" stroke-width="4"/>
<line x1="603" y1="167" x2="603" y2="272" stroke="#17375E" stroke-width="4"/>
<line x1="654" y1="167" x2="654" y2="272" stroke="#17375E" stroke-width="4"/>
<line x1="662" y1="167" x2="662" y2="272" stroke="#17375E" stroke-width="4"/>
<line x1="696" y1="167" x2="696" y2="272" stroke="#17375E" stroke-width="4"/>
<line x1="721" y1="167" x2="721" y2="272" stroke="#17375E" stroke-width="4"/>
<line x1="729" y1="167" x2="729" y2="272" stroke="#17375E" stroke-width="4"/>
<line x1="746" y1="167" x2="746" y2="272" stroke="#17375E" stroke-width="4"/>
<line x1="763" y1="167" x2="763" y2="272" stroke="#17375E" stroke-width="4"/>
<line x1="780" y1="167" x2="780" y2="272" stroke="#17375E" stroke-width="4"/>
<line x1="804" y1="167" x2="804" y2="272" stroke="#17375E" stroke-width="4"/>
<line x1="863" y1="167" x2="863" y2="272" stroke="#17375E" stroke-width="4"/>
<line x1="880" y1="167" x2="880" y2="272" stroke="#17375E" stroke-width="4"/>
<line x1="922" y1="167" x2="922" y2="272" stroke="#17375E" stroke-width="4"/>
<line x1="386" y1="167" x2="386" y2="272" stroke="#17375E" stroke-width="4"/>
<line x1="411" y1="167" x2="411" y2="272" stroke="#17375E" stroke-width="4"/>
<line x1="21" y1="167" x2="21" y2="272" stroke="#17375E" stroke-width="12"/>
<line x1="38" y1="167" x2="38" y2="272" stroke="#17375E" stroke-width="12"/>
<line x1="63" y1="167" x2="63" y2="272" stroke="#17375E" stroke-width="12"/>
<line x1="97" y1="167" x2="97" y2="272" stroke="#17375E" stroke-width="12"/>
<line x1="155" y1="167" x2="155" y2="272" stroke="#17375E" stroke-width="12"/>
<line x1="172" y1="167" x2="172" y2="272" stroke="#17375E" stroke-width="12"/>
<line x1="223" y1="167" x2="223" y2="272" stroke="#17375E" stroke-width="12"/>
<line x1="239" y1="167" x2="239" y2="272" stroke="#17375E" stroke-width="12"/>
<line x1="265" y1="167" x2="265" y2="272" stroke="#17375E" stroke-width="12"/>
<line x1="306" y1="167" x2="306" y2="272" stroke="#17375E" stroke-width="12"/>
<line x1="356" y1="167" x2="356" y2="272" stroke="#17375E" stroke-width="12"/>
<line x1="373" y1="167" x2="373" y2="272" stroke="#17375E" stroke-width="12"/>
<line x1="398" y1="167" x2="398" y2="272" stroke="#17375E" stroke-width="12"/>
<line x1="432" y1="167" x2="432" y2="272" stroke="#17375E" stroke-width="12"/>
<line x1="474" y1="167" x2="474" y2="272" stroke="#17375E" stroke-width="12"/>
<line x1="507" y1="167" x2="507" y2="272" stroke="#17375E" stroke-width="12"/>
<line x1="532" y1="167" x2="532" y2="272" stroke="#17375E" stroke-width="12"/>
<line x1="574" y1="167" x2="574" y2="272" stroke="#17375E" stroke-width="12"/>
<line x1="624" y1="167" x2="624" y2="272" stroke="#17375E" stroke-width="12"/>
<line x1="641" y1="167" x2="641" y2="272" stroke="#17375E" stroke-width="12"/>
<line x1="675" y1="167" x2="675" y2="272" stroke="#17375E" stroke-width="12"/>
<line x1="708" y1="167" x2="708" y2="272" stroke="#17375E" stroke-width="12"/>
<line x1="817" y1="167" x2="817" y2="272" stroke="#17375E" stroke-width="12"/>
<line x1="842" y1="167" x2="842" y2="272" stroke="#17375E" stroke-width="12"/>
<line x1="892" y1="167" x2="892" y2="272" stroke="#17375E" stroke-width="12"/>
<line x1="909" y1="167" x2="909" y2="272" stroke="#17375E" stroke-width="12"/>
</g>
<defs>
<clipPath id="clip0_1_108">
<rect width="933" height="282" fill="white"/>
</clipPath>
</defs>
</svg>
